<svg width="300" height="301" viewBox="0 0 300 301" fill="none" xmlns="http://www.w3.org/2000/svg">
<rect width="300" height="300" fill="#24285B" fill-opacity="0.2"/>
<rect x="40" y="15" width="221" height="265" rx="30" fill="white"/>
<path d="M50.6777 132.784C44.2154 155.42 45.1385 178.407 53.5511 200.158C60.7327 218.696 73.312 235.022 89.7196 247.038C96.0058 251.698 117.223 261.592 124.833 263.412C138.051 266.665 153.3 267.318 167.627 265.267C176.406 263.995 195.906 256.897 203.559 252.189C215.708 244.666 226.969 234.364 235.039 223.301C237.209 220.402 240.788 213.703 244.272 206.232C250.542 192.784 252.269 187.131 253.739 174.81C255.866 158.156 254.064 143.491 248.118 126.984C242.062 110.517 234.016 98.1241 221.682 86.7335C212.636 78.2403 207.68 75.0197 194.232 68.7489C180.784 62.4781 175.131 60.7517 162.81 59.2813C146.157 57.1547 131.491 58.9568 114.984 64.9028C95.3751 72.04 80.2641 83.1847 67.4057 99.8365C63.1295 105.301 52.6677 125.981 50.6777 132.784ZM117.199 75.7586C124.458 72.868 135.344 70.3947 135.449 71.5351C135.574 72.048 136.99 80.7128 138.632 90.8466C140.383 100.941 141.645 109.351 141.576 109.501C141.471 109.725 137.383 111.275 132.453 113.069L123.47 116.339L114.273 100.953C101.906 80.27 102.594 82.5008 107.798 79.9246C110.163 78.7536 114.425 76.8301 117.199 75.7586ZM120.946 134.626C125.461 129.819 128.757 127.627 135.579 124.896C146.633 120.5 157.077 120.731 167.685 125.678C177.771 130.381 183.889 136.963 188.125 147.579C192.52 158.633 192.289 169.076 187.342 179.685C182.395 190.294 174.544 197.184 163.251 200.922C152.395 204.501 143.421 204.045 133.335 199.342C123.399 194.709 117.207 188.092 113.016 177.77C106.806 162.413 109.655 146.551 120.946 134.626ZM168.493 211.916C173.388 210.197 177.59 208.791 177.74 208.861C178.113 209.035 196.927 240.274 197.56 241.842C198.307 243.555 183.11 250.203 172.12 252.9C166.991 254.147 165.627 254.147 165.562 253.117C165.467 252.345 164.085 243.605 162.448 233.656C160.847 223.631 159.515 215.37 159.55 215.295C159.584 215.221 163.638 213.745 168.493 211.916Z" fill="#24285B"/>
<path d="M145.611 154.632C139.923 157.765 140.088 167.987 145.941 170.624C152.7 173.675 159.542 169.635 159.542 162.546C159.542 155.374 151.958 151.088 145.611 154.632Z" fill="#24285B"/>
<path d="M40 220H261V250C261 266.569 247.569 280 231 280H70C53.4315 280 40 266.569 40 250V220Z" fill="white"/>
<path d="M57.8818 244H61.5117C62.0586 244 62.5508 243.938 62.9883 243.815C63.4258 243.692 63.7972 243.508 64.1025 243.262C64.4079 243.016 64.6426 242.71 64.8066 242.346C64.9707 241.981 65.0527 241.56 65.0527 241.081C65.0527 240.83 65.0186 240.589 64.9502 240.356C64.8864 240.119 64.7861 239.901 64.6494 239.7C64.5173 239.513 64.3532 239.349 64.1572 239.208C63.9658 239.067 63.7061 238.951 63.3779 238.859V238.853C63.5465 238.789 63.6992 238.711 63.8359 238.62C63.9772 238.529 64.1025 238.429 64.2119 238.319C64.4124 238.119 64.5628 237.886 64.6631 237.622C64.7679 237.353 64.8226 237.068 64.8271 236.768C64.8271 236.303 64.7406 235.899 64.5674 235.558C64.3988 235.216 64.1572 234.933 63.8428 234.71C63.5283 234.487 63.1478 234.32 62.7012 234.211C62.2591 234.102 61.7669 234.047 61.2246 234.047H57.8818V244ZM59.8096 239.611H61.6006C61.8695 239.616 62.1019 239.652 62.2979 239.721C62.4938 239.789 62.6533 239.887 62.7764 240.015C62.8994 240.138 62.9883 240.288 63.043 240.466C63.1022 240.644 63.1318 240.844 63.1318 241.067C63.1318 241.282 63.0931 241.475 63.0156 241.648C62.9427 241.822 62.8333 241.97 62.6875 242.093C62.5553 242.202 62.389 242.289 62.1885 242.353C61.9925 242.416 61.7692 242.448 61.5186 242.448H59.8096V239.611ZM59.8096 238.224V235.612H61.2314C61.5413 235.617 61.8102 235.651 62.0381 235.715C62.2705 235.779 62.4551 235.881 62.5918 236.022C62.6966 236.123 62.7741 236.248 62.8242 236.398C62.8789 236.549 62.9062 236.724 62.9062 236.925C62.9062 237.116 62.8743 237.287 62.8105 237.438C62.7513 237.588 62.6647 237.715 62.5508 237.82C62.4141 237.952 62.234 238.053 62.0107 238.121C61.7874 238.185 61.5299 238.219 61.2383 238.224H59.8096ZM68.3613 242.448V234.047H66.4336V244H73.0234V242.448H68.3613ZM81.3428 234.047H79.4355L79.4287 240.644C79.4242 240.967 79.39 241.252 79.3262 241.498C79.2624 241.744 79.1667 241.949 79.0391 242.113C78.9206 242.273 78.7702 242.394 78.5879 242.476C78.4102 242.553 78.2051 242.592 77.9727 242.592C77.7585 242.592 77.5693 242.555 77.4053 242.482C77.2412 242.405 77.1022 242.291 76.9883 242.141C76.8652 241.977 76.7718 241.769 76.708 241.519C76.6488 241.268 76.6169 240.976 76.6123 240.644L76.6055 234.047H74.6846L74.6777 240.644C74.6777 241.2 74.7552 241.696 74.9102 242.134C75.0697 242.567 75.293 242.931 75.5801 243.228C75.8672 243.524 76.2113 243.749 76.6123 243.904C77.0179 244.059 77.4714 244.137 77.9727 244.137C78.5059 244.137 78.9798 244.059 79.3945 243.904C79.8138 243.749 80.1693 243.521 80.4609 243.221C80.748 242.924 80.9668 242.56 81.1172 242.127C81.2721 241.694 81.3496 241.2 81.3496 240.644L81.3428 234.047ZM89.2451 239.639V238.121H85.1572V235.612H89.915V234.047H83.2295V244H89.9355V242.448H85.1572V239.639H89.2451ZM96.6963 241.402C96.6963 241.58 96.6598 241.744 96.5869 241.895C96.514 242.04 96.4092 242.166 96.2725 242.271C96.1357 242.375 95.9671 242.457 95.7666 242.517C95.5706 242.576 95.3451 242.605 95.0898 242.605C94.8027 242.605 94.5384 242.574 94.2969 242.51C94.0599 242.446 93.8571 242.346 93.6885 242.209C93.5153 242.072 93.3809 241.897 93.2852 241.683C93.1895 241.468 93.137 241.211 93.1279 240.91H91.2412C91.2412 241.425 91.3392 241.874 91.5352 242.257C91.7357 242.64 92.0068 242.972 92.3486 243.255C92.7087 243.542 93.1302 243.761 93.6133 243.911C94.1009 244.057 94.5931 244.13 95.0898 244.13C95.5957 244.13 96.0628 244.071 96.4912 243.952C96.9196 243.829 97.2887 243.649 97.5986 243.412C97.9085 243.18 98.1501 242.895 98.3232 242.558C98.501 242.216 98.5898 241.826 98.5898 241.389C98.5898 240.883 98.4736 240.436 98.2412 240.049C98.0088 239.661 97.6966 239.322 97.3047 239.03C97.0449 238.853 96.7601 238.695 96.4502 238.559C96.1403 238.422 95.8145 238.306 95.4727 238.21C95.1536 238.123 94.8665 238.03 94.6113 237.93C94.3607 237.829 94.1465 237.718 93.9688 237.595C93.791 237.476 93.6543 237.342 93.5586 237.191C93.4674 237.041 93.4219 236.872 93.4219 236.686C93.4219 236.508 93.4561 236.344 93.5244 236.193C93.5973 236.038 93.7021 235.904 93.8389 235.79C93.9756 235.681 94.1419 235.596 94.3379 235.537C94.5384 235.473 94.7663 235.441 95.0215 235.441C95.2995 235.441 95.541 235.48 95.7461 235.558C95.9557 235.631 96.1312 235.733 96.2725 235.865C96.4092 236.002 96.5117 236.164 96.5801 236.351C96.653 236.537 96.694 236.743 96.7031 236.966H98.5762C98.5762 236.519 98.4896 236.109 98.3164 235.735C98.1432 235.362 97.9017 235.038 97.5918 234.765C97.2819 234.496 96.9105 234.286 96.4775 234.136C96.0492 233.985 95.5752 233.91 95.0557 233.91C94.5544 233.91 94.0895 233.976 93.6611 234.108C93.2327 234.236 92.8613 234.421 92.5469 234.662C92.2324 234.904 91.9863 235.195 91.8086 235.537C91.6309 235.879 91.542 236.259 91.542 236.679C91.542 237.043 91.6081 237.381 91.7402 237.69C91.877 238 92.0775 238.283 92.3418 238.538C92.6061 238.793 92.9456 239.028 93.3604 239.242C93.7796 239.456 94.265 239.639 94.8164 239.789C95.1719 239.885 95.4681 239.99 95.7051 240.104C95.9466 240.213 96.1426 240.334 96.293 240.466C96.4388 240.603 96.5413 240.748 96.6006 240.903C96.6644 241.058 96.6963 241.225 96.6963 241.402ZM64.4717 262V260.476H60.1035L61.9766 258.493C62.3001 258.16 62.5941 257.844 62.8584 257.543C63.1227 257.238 63.3506 256.939 63.542 256.647C63.7288 256.356 63.8724 256.062 63.9727 255.766C64.0775 255.465 64.1299 255.15 64.1299 254.822C64.1299 254.389 64.0615 253.995 63.9248 253.64C63.7881 253.28 63.5898 252.972 63.3301 252.717C63.0658 252.462 62.7376 252.263 62.3457 252.122C61.9583 251.981 61.5117 251.91 61.0059 251.91C60.4772 251.91 59.9941 251.997 59.5566 252.17C59.1237 252.339 58.7546 252.571 58.4492 252.867C58.1393 253.163 57.9001 253.51 57.7314 253.906C57.5628 254.298 57.4785 254.715 57.4785 255.157H59.3857C59.3857 254.888 59.4199 254.649 59.4883 254.439C59.5566 254.23 59.6569 254.054 59.7891 253.913C59.9167 253.776 60.0762 253.674 60.2676 253.605C60.4635 253.533 60.6891 253.496 60.9443 253.496C61.1403 253.496 61.318 253.528 61.4775 253.592C61.6416 253.656 61.7829 253.747 61.9014 253.865C62.0153 253.988 62.1042 254.136 62.168 254.31C62.2318 254.483 62.2637 254.681 62.2637 254.904C62.2637 255.055 62.2386 255.21 62.1885 255.369C62.1429 255.529 62.0677 255.7 61.9629 255.882C61.8535 256.069 61.7122 256.274 61.5391 256.497C61.3659 256.72 61.154 256.969 60.9033 257.242L57.6836 260.701V262H64.4717ZM72.8525 258.213V255.834C72.8525 255.191 72.7773 254.626 72.627 254.139C72.4766 253.646 72.2624 253.234 71.9844 252.901C71.7018 252.573 71.36 252.325 70.959 252.156C70.5579 251.988 70.1068 251.903 69.6055 251.903C69.1087 251.903 68.6598 251.988 68.2588 252.156C67.8623 252.325 67.5251 252.573 67.2471 252.901C66.9645 253.234 66.748 253.646 66.5977 254.139C66.4473 254.626 66.3721 255.191 66.3721 255.834V258.213C66.3721 258.855 66.4473 259.423 66.5977 259.915C66.7526 260.403 66.9714 260.811 67.2539 261.139C67.5319 261.471 67.8714 261.722 68.2725 261.891C68.6735 262.059 69.1224 262.144 69.6191 262.144C70.1204 262.144 70.5716 262.059 70.9727 261.891C71.3737 261.722 71.7132 261.471 71.9912 261.139C72.2692 260.811 72.4811 260.403 72.627 259.915C72.7773 259.423 72.8525 258.855 72.8525 258.213ZM68.2861 257.393C68.2861 257.251 68.2861 257.144 68.2861 257.071C68.2861 256.998 68.2861 256.853 68.2861 256.634V255.533C68.2861 255.164 68.3135 254.845 68.3682 254.576C68.4274 254.307 68.5163 254.089 68.6348 253.92C68.7441 253.76 68.8786 253.642 69.0381 253.564C69.2021 253.482 69.3913 253.441 69.6055 253.441C69.7969 253.441 69.9678 253.473 70.1182 253.537C70.2731 253.596 70.403 253.69 70.5078 253.817C70.6445 253.977 70.7471 254.191 70.8154 254.46C70.8883 254.724 70.9294 255.043 70.9385 255.417L68.2861 257.393ZM70.9385 258.5C70.9385 258.869 70.9089 259.19 70.8496 259.464C70.7949 259.733 70.7106 259.954 70.5967 260.127C70.4873 260.291 70.3506 260.414 70.1865 260.496C70.0225 260.574 69.8333 260.612 69.6191 260.612C69.3867 260.612 69.1862 260.567 69.0176 260.476C68.849 260.384 68.71 260.245 68.6006 260.059C68.5049 259.904 68.4297 259.71 68.375 259.478C68.3249 259.245 68.2952 258.979 68.2861 258.678L70.9385 256.709C70.9385 256.841 70.9385 256.944 70.9385 257.017C70.9385 257.085 70.9385 257.194 70.9385 257.345V258.5ZM89.8467 258.377V256.839H84.1523V258.377H89.8467ZM104.66 262V252.047H104.558L100.224 253.612V255.267L102.739 254.364V262H104.66ZM114.894 258.213V255.834C114.894 255.191 114.818 254.626 114.668 254.139C114.518 253.646 114.303 253.234 114.025 252.901C113.743 252.573 113.401 252.325 113 252.156C112.599 251.988 112.148 251.903 111.646 251.903C111.15 251.903 110.701 251.988 110.3 252.156C109.903 252.325 109.566 252.573 109.288 252.901C109.006 253.234 108.789 253.646 108.639 254.139C108.488 254.626 108.413 255.191 108.413 255.834V258.213C108.413 258.855 108.488 259.423 108.639 259.915C108.794 260.403 109.012 260.811 109.295 261.139C109.573 261.471 109.912 261.722 110.313 261.891C110.715 262.059 111.163 262.144 111.66 262.144C112.161 262.144 112.613 262.059 113.014 261.891C113.415 261.722 113.754 261.471 114.032 261.139C114.31 260.811 114.522 260.403 114.668 259.915C114.818 259.423 114.894 258.855 114.894 258.213ZM110.327 257.393C110.327 257.251 110.327 257.144 110.327 257.071C110.327 256.998 110.327 256.853 110.327 256.634V255.533C110.327 255.164 110.354 254.845 110.409 254.576C110.468 254.307 110.557 254.089 110.676 253.92C110.785 253.76 110.92 253.642 111.079 253.564C111.243 253.482 111.432 253.441 111.646 253.441C111.838 253.441 112.009 253.473 112.159 253.537C112.314 253.596 112.444 253.69 112.549 253.817C112.686 253.977 112.788 254.191 112.856 254.46C112.929 254.724 112.97 255.043 112.979 255.417L110.327 257.393ZM112.979 258.5C112.979 258.869 112.95 259.19 112.891 259.464C112.836 259.733 112.752 259.954 112.638 260.127C112.528 260.291 112.392 260.414 112.228 260.496C112.063 260.574 111.874 260.612 111.66 260.612C111.428 260.612 111.227 260.567 111.059 260.476C110.89 260.384 110.751 260.245 110.642 260.059C110.546 259.904 110.471 259.71 110.416 259.478C110.366 259.245 110.336 258.979 110.327 258.678L112.979 256.709C112.979 256.841 112.979 256.944 112.979 257.017C112.979 257.085 112.979 257.194 112.979 257.345V258.5ZM123.302 258.213V255.834C123.302 255.191 123.227 254.626 123.076 254.139C122.926 253.646 122.712 253.234 122.434 252.901C122.151 252.573 121.809 252.325 121.408 252.156C121.007 251.988 120.556 251.903 120.055 251.903C119.558 251.903 119.109 251.988 118.708 252.156C118.312 252.325 117.974 252.573 117.696 252.901C117.414 253.234 117.197 253.646 117.047 254.139C116.896 254.626 116.821 255.191 116.821 255.834V258.213C116.821 258.855 116.896 259.423 117.047 259.915C117.202 260.403 117.421 260.811 117.703 261.139C117.981 261.471 118.321 261.722 118.722 261.891C119.123 262.059 119.572 262.144 120.068 262.144C120.57 262.144 121.021 262.059 121.422 261.891C121.823 261.722 122.162 261.471 122.44 261.139C122.718 260.811 122.93 260.403 123.076 259.915C123.227 259.423 123.302 258.855 123.302 258.213ZM118.735 257.393C118.735 257.251 118.735 257.144 118.735 257.071C118.735 256.998 118.735 256.853 118.735 256.634V255.533C118.735 255.164 118.763 254.845 118.817 254.576C118.877 254.307 118.965 254.089 119.084 253.92C119.193 253.76 119.328 253.642 119.487 253.564C119.651 253.482 119.84 253.441 120.055 253.441C120.246 253.441 120.417 253.473 120.567 253.537C120.722 253.596 120.852 253.69 120.957 253.817C121.094 253.977 121.196 254.191 121.265 254.46C121.338 254.724 121.379 255.043 121.388 255.417L118.735 257.393ZM121.388 258.5C121.388 258.869 121.358 259.19 121.299 259.464C121.244 259.733 121.16 259.954 121.046 260.127C120.937 260.291 120.8 260.414 120.636 260.496C120.472 260.574 120.283 260.612 120.068 260.612C119.836 260.612 119.635 260.567 119.467 260.476C119.298 260.384 119.159 260.245 119.05 260.059C118.954 259.904 118.879 259.71 118.824 259.478C118.774 259.245 118.744 258.979 118.735 258.678L121.388 256.709C121.388 256.841 121.388 256.944 121.388 257.017C121.388 257.085 121.388 257.194 121.388 257.345V258.5ZM133.556 262H137.186C137.732 262 138.225 261.938 138.662 261.815C139.1 261.692 139.471 261.508 139.776 261.262C140.082 261.016 140.316 260.71 140.48 260.346C140.645 259.981 140.727 259.56 140.727 259.081C140.727 258.83 140.692 258.589 140.624 258.356C140.56 258.119 140.46 257.901 140.323 257.7C140.191 257.513 140.027 257.349 139.831 257.208C139.64 257.067 139.38 256.951 139.052 256.859V256.853C139.22 256.789 139.373 256.711 139.51 256.62C139.651 256.529 139.776 256.429 139.886 256.319C140.086 256.119 140.237 255.886 140.337 255.622C140.442 255.353 140.496 255.068 140.501 254.768C140.501 254.303 140.414 253.899 140.241 253.558C140.073 253.216 139.831 252.933 139.517 252.71C139.202 252.487 138.822 252.32 138.375 252.211C137.933 252.102 137.441 252.047 136.898 252.047H133.556V262ZM135.483 257.611H137.274C137.543 257.616 137.776 257.652 137.972 257.721C138.168 257.789 138.327 257.887 138.45 258.015C138.573 258.138 138.662 258.288 138.717 258.466C138.776 258.644 138.806 258.844 138.806 259.067C138.806 259.282 138.767 259.475 138.689 259.648C138.617 259.822 138.507 259.97 138.361 260.093C138.229 260.202 138.063 260.289 137.862 260.353C137.666 260.416 137.443 260.448 137.192 260.448H135.483V257.611ZM135.483 256.224V253.612H136.905C137.215 253.617 137.484 253.651 137.712 253.715C137.944 253.779 138.129 253.881 138.266 254.022C138.37 254.123 138.448 254.248 138.498 254.398C138.553 254.549 138.58 254.724 138.58 254.925C138.58 255.116 138.548 255.287 138.484 255.438C138.425 255.588 138.339 255.715 138.225 255.82C138.088 255.952 137.908 256.053 137.685 256.121C137.461 256.185 137.204 256.219 136.912 256.224H135.483ZM144.021 258.35H145.505C146.047 258.35 146.537 258.272 146.975 258.117C147.412 257.962 147.786 257.746 148.096 257.468C148.401 257.194 148.636 256.868 148.8 256.49C148.968 256.112 149.053 255.7 149.053 255.253C149.053 254.774 148.968 254.339 148.8 253.947C148.636 253.555 148.401 253.218 148.096 252.936C147.786 252.658 147.412 252.441 146.975 252.286C146.537 252.127 146.047 252.047 145.505 252.047H142.101V262H144.021V258.35ZM144.021 256.791V253.605H145.505C145.778 253.605 146.015 253.649 146.216 253.735C146.416 253.822 146.585 253.94 146.722 254.091C146.854 254.241 146.952 254.417 147.016 254.617C147.084 254.818 147.118 255.034 147.118 255.267C147.118 255.467 147.084 255.661 147.016 255.848C146.952 256.03 146.854 256.192 146.722 256.333C146.585 256.474 146.416 256.586 146.216 256.668C146.015 256.75 145.778 256.791 145.505 256.791H144.021ZM152.744 252.047H150.358V262H152.122V259.054L152.04 254.583L153.209 258.719H154.159L155.465 254.398L155.383 259.054V262H157.146V252.047H154.761L153.688 255.786L152.744 252.047Z" fill="black"/>
</svg>
