<svg width="300" height="301" viewBox="0 0 300 301" fill="none" xmlns="http://www.w3.org/2000/svg">
<rect width="300" height="300" fill="#F4F5F7"/>
<rect x="40" y="15" width="221" height="265" rx="30" fill="white"/>
<path d="M50.6777 132.784C44.2154 155.42 45.1385 178.407 53.5511 200.157C60.7327 218.696 73.312 235.022 89.7196 247.038C96.0058 251.698 117.223 261.592 124.833 263.412C138.051 266.665 153.3 267.318 167.627 265.267C176.406 263.995 195.906 256.897 203.559 252.189C215.708 244.666 226.969 234.364 235.039 223.301C237.209 220.402 240.788 213.703 244.272 206.232C250.542 192.784 252.269 187.131 253.739 174.81C255.866 158.156 254.064 143.491 248.118 126.984C242.062 110.517 234.016 98.1241 221.682 86.7335C212.636 78.2403 207.68 75.0197 194.232 68.7489C180.784 62.4781 175.131 60.7517 162.81 59.2812C146.157 57.1547 131.491 58.9568 114.984 64.9028C95.3751 72.0399 80.2641 83.1846 67.4057 99.8365C63.1295 105.301 52.6677 125.981 50.6777 132.784ZM117.199 75.7585C124.458 72.868 135.344 70.3947 135.449 71.5351C135.574 72.048 136.99 80.7128 138.632 90.8466C140.383 100.94 141.645 109.351 141.576 109.501C141.471 109.725 137.383 111.275 132.453 113.069L123.47 116.339L114.273 100.953C101.906 80.2699 102.594 82.5008 107.798 79.9246C110.163 78.7536 114.425 76.83 117.199 75.7585ZM120.946 134.626C125.461 129.819 128.757 127.627 135.579 124.896C146.633 120.5 157.077 120.731 167.685 125.678C177.771 130.381 183.889 136.963 188.125 147.579C192.52 158.633 192.289 169.076 187.342 179.685C182.395 190.294 174.544 197.184 163.251 200.922C152.395 204.501 143.421 204.045 133.335 199.342C123.399 194.709 117.207 188.092 113.016 177.77C106.806 162.413 109.655 146.551 120.946 134.626ZM168.493 211.916C173.388 210.197 177.59 208.791 177.74 208.861C178.113 209.035 196.927 240.274 197.56 241.842C198.307 243.555 183.11 250.203 172.12 252.9C166.991 254.147 165.627 254.147 165.562 253.117C165.467 252.345 164.085 243.605 162.448 233.656C160.847 223.631 159.515 215.37 159.55 215.295C159.584 215.221 163.638 213.745 168.493 211.916Z" fill="#24285B"/>
<path d="M141.283 163.574C141.718 170.052 151.052 174.223 155.916 170.033C161.537 165.196 160.768 157.288 154.343 154.292C147.843 151.261 140.753 156.323 141.283 163.574Z" fill="#24285B"/>
<path d="M40 220H261V250C261 266.569 247.569 280 231 280H70C53.4315 280 40 266.569 40 250V220Z" fill="white"/>
<path d="M64.8066 240.883H62.8857C62.8675 241.184 62.8174 241.441 62.7354 241.655C62.6533 241.869 62.5417 242.045 62.4004 242.182C62.2591 242.318 62.0882 242.419 61.8877 242.482C61.6872 242.546 61.4616 242.578 61.2109 242.578C61.0241 242.578 60.8532 242.558 60.6982 242.517C60.5479 242.471 60.4111 242.403 60.2881 242.312C60.1742 242.229 60.0716 242.127 59.9805 242.004C59.8939 241.881 59.8187 241.74 59.7549 241.58C59.6637 241.348 59.5954 241.076 59.5498 240.767C59.5088 240.452 59.4883 240.097 59.4883 239.7V238.347C59.4883 238.055 59.502 237.784 59.5293 237.533C59.5566 237.278 59.5999 237.046 59.6592 236.836C59.7367 236.567 59.8392 236.332 59.9668 236.132C60.099 235.927 60.2585 235.77 60.4453 235.66C60.5547 235.596 60.6732 235.549 60.8008 235.517C60.9329 235.485 61.0742 235.469 61.2246 235.469C61.5072 235.469 61.7487 235.507 61.9492 235.585C62.1543 235.658 62.3252 235.767 62.4619 235.913C62.5941 236.063 62.6943 236.25 62.7627 236.474C62.8356 236.697 62.8812 236.957 62.8994 237.253H64.8135C64.7679 236.733 64.6585 236.266 64.4854 235.852C64.3122 235.437 64.0752 235.086 63.7744 234.799C63.4736 234.512 63.109 234.291 62.6807 234.136C62.2568 233.981 61.7715 233.903 61.2246 233.903C60.8555 233.903 60.5091 233.951 60.1855 234.047C59.8665 234.138 59.5726 234.27 59.3037 234.443C59.0029 234.648 58.734 234.899 58.4971 235.195C58.2601 235.492 58.0687 235.829 57.9229 236.207C57.7952 236.517 57.6995 236.854 57.6357 237.219C57.5719 237.579 57.54 237.959 57.54 238.36V239.7C57.54 240.129 57.5742 240.534 57.6426 240.917C57.7155 241.3 57.818 241.651 57.9502 241.97C58.0869 242.289 58.2533 242.58 58.4492 242.845C58.6497 243.109 58.8776 243.335 59.1328 243.521C59.4108 243.722 59.723 243.877 60.0693 243.986C60.4202 244.091 60.8008 244.144 61.2109 244.144C61.7305 244.144 62.2044 244.068 62.6328 243.918C63.0612 243.763 63.4303 243.544 63.7402 243.262C64.0501 242.979 64.2962 242.637 64.4785 242.236C64.6654 241.835 64.7747 241.384 64.8066 240.883ZM72.9346 234.047H71.0273L71.0205 240.644C71.016 240.967 70.9818 241.252 70.918 241.498C70.8542 241.744 70.7585 241.949 70.6309 242.113C70.5124 242.273 70.362 242.394 70.1797 242.476C70.002 242.553 69.7969 242.592 69.5645 242.592C69.3503 242.592 69.1611 242.555 68.9971 242.482C68.833 242.405 68.694 242.291 68.5801 242.141C68.457 241.977 68.3636 241.769 68.2998 241.519C68.2406 241.268 68.2087 240.976 68.2041 240.644L68.1973 234.047H66.2764L66.2695 240.644C66.2695 241.2 66.347 241.696 66.502 242.134C66.6615 242.567 66.8848 242.931 67.1719 243.228C67.459 243.524 67.8031 243.749 68.2041 243.904C68.6097 244.059 69.0632 244.137 69.5645 244.137C70.0977 244.137 70.5716 244.059 70.9863 243.904C71.4056 243.749 71.7611 243.521 72.0527 243.221C72.3398 242.924 72.5586 242.56 72.709 242.127C72.8639 241.694 72.9414 241.2 72.9414 240.644L72.9346 234.047ZM79.8799 241.402C79.8799 241.58 79.8434 241.744 79.7705 241.895C79.6976 242.04 79.5928 242.166 79.4561 242.271C79.3193 242.375 79.1507 242.457 78.9502 242.517C78.7542 242.576 78.5286 242.605 78.2734 242.605C77.9863 242.605 77.722 242.574 77.4805 242.51C77.2435 242.446 77.0407 242.346 76.8721 242.209C76.6989 242.072 76.5645 241.897 76.4688 241.683C76.373 241.468 76.3206 241.211 76.3115 240.91H74.4248C74.4248 241.425 74.5228 241.874 74.7188 242.257C74.9193 242.64 75.1904 242.972 75.5322 243.255C75.8923 243.542 76.3138 243.761 76.7969 243.911C77.2845 244.057 77.7767 244.13 78.2734 244.13C78.7793 244.13 79.2464 244.071 79.6748 243.952C80.1032 243.829 80.4723 243.649 80.7822 243.412C81.0921 243.18 81.3337 242.895 81.5068 242.558C81.6846 242.216 81.7734 241.826 81.7734 241.389C81.7734 240.883 81.6572 240.436 81.4248 240.049C81.1924 239.661 80.8802 239.322 80.4883 239.03C80.2285 238.853 79.9437 238.695 79.6338 238.559C79.3239 238.422 78.998 238.306 78.6562 238.21C78.3372 238.123 78.0501 238.03 77.7949 237.93C77.5443 237.829 77.3301 237.718 77.1523 237.595C76.9746 237.476 76.8379 237.342 76.7422 237.191C76.651 237.041 76.6055 236.872 76.6055 236.686C76.6055 236.508 76.6396 236.344 76.708 236.193C76.7809 236.038 76.8857 235.904 77.0225 235.79C77.1592 235.681 77.3255 235.596 77.5215 235.537C77.722 235.473 77.9499 235.441 78.2051 235.441C78.4831 235.441 78.7246 235.48 78.9297 235.558C79.1393 235.631 79.3148 235.733 79.4561 235.865C79.5928 236.002 79.6953 236.164 79.7637 236.351C79.8366 236.537 79.8776 236.743 79.8867 236.966H81.7598C81.7598 236.519 81.6732 236.109 81.5 235.735C81.3268 235.362 81.0853 235.038 80.7754 234.765C80.4655 234.496 80.0941 234.286 79.6611 234.136C79.2327 233.985 78.7588 233.91 78.2393 233.91C77.738 233.91 77.2731 233.976 76.8447 234.108C76.4163 234.236 76.0449 234.421 75.7305 234.662C75.416 234.904 75.1699 235.195 74.9922 235.537C74.8145 235.879 74.7256 236.259 74.7256 236.679C74.7256 237.043 74.7917 237.381 74.9238 237.69C75.0605 238 75.2611 238.283 75.5254 238.538C75.7897 238.793 76.1292 239.028 76.5439 239.242C76.9632 239.456 77.4486 239.639 78 239.789C78.3555 239.885 78.6517 239.99 78.8887 240.104C79.1302 240.213 79.3262 240.334 79.4766 240.466C79.6224 240.603 79.7249 240.748 79.7842 240.903C79.848 241.058 79.8799 241.225 79.8799 241.402ZM90.4346 235.612V234.047H82.4092V235.612H85.4375V244H87.3652V235.612H90.4346ZM98.4736 239.755V238.306C98.4736 237.854 98.4303 237.428 98.3438 237.027C98.2617 236.626 98.141 236.257 97.9814 235.92C97.8356 235.624 97.6602 235.353 97.4551 235.106C97.2546 234.86 97.0199 234.651 96.751 234.478C96.4821 234.295 96.179 234.156 95.8418 234.061C95.5091 233.96 95.1514 233.91 94.7686 233.91C94.3903 233.91 94.0394 233.958 93.7158 234.054C93.3923 234.149 93.1006 234.286 92.8408 234.464C92.5765 234.646 92.3418 234.865 92.1367 235.12C91.9362 235.375 91.7653 235.66 91.624 235.975C91.4782 236.307 91.3665 236.67 91.2891 237.062C91.2161 237.453 91.1797 237.868 91.1797 238.306V239.755C91.1797 240.165 91.2116 240.555 91.2754 240.924C91.3438 241.293 91.4417 241.635 91.5693 241.949C91.7106 242.291 91.8861 242.599 92.0957 242.872C92.3053 243.141 92.5423 243.371 92.8066 243.562C93.0755 243.745 93.374 243.886 93.7021 243.986C94.0303 244.087 94.388 244.137 94.7754 244.137C95.14 244.137 95.4795 244.091 95.7939 244C96.113 243.913 96.4046 243.79 96.6689 243.631C96.9606 243.449 97.2204 243.221 97.4482 242.947C97.6761 242.674 97.8675 242.373 98.0225 242.045C98.1683 241.717 98.2799 241.361 98.3574 240.979C98.4349 240.591 98.4736 240.183 98.4736 239.755ZM96.5254 238.292V239.755C96.5254 240.001 96.5117 240.238 96.4844 240.466C96.4616 240.694 96.4251 240.903 96.375 241.095C96.3112 241.341 96.2246 241.562 96.1152 241.758C96.0104 241.949 95.8805 242.109 95.7256 242.236C95.6025 242.341 95.4613 242.421 95.3018 242.476C95.1423 242.53 94.9668 242.558 94.7754 242.558C94.5749 242.558 94.3949 242.528 94.2354 242.469C94.0804 242.41 93.9414 242.325 93.8184 242.216C93.6862 242.093 93.57 241.933 93.4697 241.737C93.374 241.537 93.3011 241.316 93.251 241.074C93.2054 240.883 93.1735 240.675 93.1553 240.452C93.137 240.229 93.1279 239.996 93.1279 239.755V238.292C93.1279 238.037 93.137 237.793 93.1553 237.561C93.1781 237.328 93.2122 237.114 93.2578 236.918C93.3171 236.663 93.3991 236.439 93.5039 236.248C93.6133 236.057 93.7454 235.897 93.9004 235.77C94.0143 235.683 94.1419 235.617 94.2832 235.571C94.429 235.526 94.5908 235.503 94.7686 235.503C94.9554 235.503 95.124 235.528 95.2744 235.578C95.4294 235.628 95.5684 235.699 95.6914 235.79C95.8464 235.913 95.9808 236.073 96.0947 236.269C96.2087 236.46 96.2998 236.679 96.3682 236.925C96.4229 237.121 96.4616 237.335 96.4844 237.567C96.5117 237.795 96.5254 238.037 96.5254 238.292ZM102.295 234.047H99.9092V244H101.673V241.054L101.591 236.583L102.76 240.719H103.71L105.016 236.398L104.934 241.054V244H106.697V234.047H104.312L103.238 237.786L102.295 234.047Z" fill="black"/>
</svg>
