<svg width="300" height="301" viewBox="0 0 300 301" fill="none" xmlns="http://www.w3.org/2000/svg">
<rect width="300" height="300" fill="#8E072D" fill-opacity="0.2"/>
<rect x="40" y="15" width="221" height="265" rx="30" fill="white"/>
<path d="M50.6777 132.784C44.2154 155.42 45.1385 178.407 53.5511 200.158C60.7327 218.696 73.312 235.022 89.7196 247.038C96.0058 251.698 117.223 261.592 124.833 263.412C138.051 266.665 153.3 267.318 167.627 265.267C176.406 263.995 195.906 256.897 203.559 252.189C215.708 244.666 226.969 234.364 235.039 223.301C237.209 220.402 240.788 213.703 244.272 206.232C250.542 192.784 252.269 187.131 253.739 174.81C255.866 158.156 254.064 143.491 248.118 126.984C242.062 110.517 234.016 98.1241 221.682 86.7335C212.636 78.2403 207.68 75.0197 194.232 68.7489C180.784 62.4781 175.131 60.7517 162.81 59.2813C146.157 57.1547 131.491 58.9568 114.984 64.9028C95.3751 72.04 80.2641 83.1847 67.4057 99.8365C63.1295 105.301 52.6677 125.981 50.6777 132.784ZM117.199 75.7586C124.458 72.868 135.344 70.3947 135.449 71.5351C135.574 72.048 136.99 80.7128 138.632 90.8466C140.383 100.941 141.645 109.351 141.576 109.501C141.471 109.725 137.383 111.275 132.453 113.069L123.47 116.339L114.273 100.953C101.906 80.27 102.594 82.5008 107.798 79.9246C110.163 78.7536 114.425 76.8301 117.199 75.7586ZM120.946 134.626C125.461 129.819 128.757 127.627 135.579 124.896C146.633 120.5 157.077 120.731 167.685 125.678C177.771 130.381 183.889 136.963 188.125 147.579C192.52 158.633 192.289 169.076 187.342 179.685C182.395 190.294 174.544 197.184 163.251 200.922C152.395 204.501 143.421 204.045 133.335 199.342C123.399 194.709 117.207 188.092 113.016 177.77C106.806 162.413 109.655 146.551 120.946 134.626ZM168.493 211.916C173.388 210.197 177.59 208.791 177.74 208.861C178.113 209.035 196.927 240.274 197.56 241.842C198.307 243.555 183.11 250.203 172.12 252.9C166.991 254.147 165.627 254.147 165.562 253.117C165.467 252.345 164.085 243.605 162.448 233.656C160.847 223.631 159.515 215.37 159.55 215.295C159.584 215.221 163.638 213.745 168.493 211.916Z" fill="#24285B"/>
<path d="M145.611 154.632C139.923 157.765 140.088 167.987 145.941 170.624C152.7 173.675 159.542 169.635 159.542 162.546C159.542 155.374 151.958 151.088 145.611 154.632Z" fill="#24285B"/>
<path d="M40 220H261V250C261 266.569 247.569 280 231 280H70C53.4315 280 40 266.569 40 250V220Z" fill="white"/>
<path d="M64.2119 239.878V238.319H59.9463V235.612H64.7451V234.047H58.0186V244H59.9463V239.878H64.2119ZM71.1982 241.922L71.7793 244H73.8027L70.6035 234.047H68.8604L65.5996 244H67.623L68.2109 241.922H71.1982ZM68.6826 240.288L69.7285 236.624L70.7471 240.288H68.6826ZM79.8799 241.402C79.8799 241.58 79.8434 241.744 79.7705 241.895C79.6976 242.04 79.5928 242.166 79.4561 242.271C79.3193 242.375 79.1507 242.457 78.9502 242.517C78.7542 242.576 78.5286 242.605 78.2734 242.605C77.9863 242.605 77.722 242.574 77.4805 242.51C77.2435 242.446 77.0407 242.346 76.8721 242.209C76.6989 242.072 76.5645 241.897 76.4688 241.683C76.373 241.468 76.3206 241.211 76.3115 240.91H74.4248C74.4248 241.425 74.5228 241.874 74.7188 242.257C74.9193 242.64 75.1904 242.972 75.5322 243.255C75.8923 243.542 76.3138 243.761 76.7969 243.911C77.2845 244.057 77.7767 244.13 78.2734 244.13C78.7793 244.13 79.2464 244.071 79.6748 243.952C80.1032 243.829 80.4723 243.649 80.7822 243.412C81.0921 243.18 81.3337 242.895 81.5068 242.558C81.6846 242.216 81.7734 241.826 81.7734 241.389C81.7734 240.883 81.6572 240.436 81.4248 240.049C81.1924 239.661 80.8802 239.322 80.4883 239.03C80.2285 238.853 79.9437 238.695 79.6338 238.559C79.3239 238.422 78.998 238.306 78.6562 238.21C78.3372 238.123 78.0501 238.03 77.7949 237.93C77.5443 237.829 77.3301 237.718 77.1523 237.595C76.9746 237.476 76.8379 237.342 76.7422 237.191C76.651 237.041 76.6055 236.872 76.6055 236.686C76.6055 236.508 76.6396 236.344 76.708 236.193C76.7809 236.038 76.8857 235.904 77.0225 235.79C77.1592 235.681 77.3255 235.596 77.5215 235.537C77.722 235.473 77.9499 235.441 78.2051 235.441C78.4831 235.441 78.7246 235.48 78.9297 235.558C79.1393 235.631 79.3148 235.733 79.4561 235.865C79.5928 236.002 79.6953 236.164 79.7637 236.351C79.8366 236.537 79.8776 236.743 79.8867 236.966H81.7598C81.7598 236.519 81.6732 236.109 81.5 235.735C81.3268 235.362 81.0853 235.038 80.7754 234.765C80.4655 234.496 80.0941 234.286 79.6611 234.136C79.2327 233.985 78.7588 233.91 78.2393 233.91C77.738 233.91 77.2731 233.976 76.8447 234.108C76.4163 234.236 76.0449 234.421 75.7305 234.662C75.416 234.904 75.1699 235.195 74.9922 235.537C74.8145 235.879 74.7256 236.259 74.7256 236.679C74.7256 237.043 74.7917 237.381 74.9238 237.69C75.0605 238 75.2611 238.283 75.5254 238.538C75.7897 238.793 76.1292 239.028 76.5439 239.242C76.9632 239.456 77.4486 239.639 78 239.789C78.3555 239.885 78.6517 239.99 78.8887 240.104C79.1302 240.213 79.3262 240.334 79.4766 240.466C79.6224 240.603 79.7249 240.748 79.7842 240.903C79.848 241.058 79.8799 241.225 79.8799 241.402ZM90.4346 235.612V234.047H82.4092V235.612H85.4375V244H87.3652V235.612H90.4346ZM62.6191 262V252.047H62.5166L58.1826 253.612V255.267L60.6982 254.364V262H62.6191ZM72.873 253.106V252.047H65.8799V253.599H70.877L66.9941 262H68.9971L72.873 253.106ZM74.876 257.099L76.3936 257.475C76.4665 257.402 76.5439 257.333 76.626 257.27C76.708 257.201 76.8014 257.142 76.9062 257.092C77.0111 257.042 77.1318 257.001 77.2686 256.969C77.4053 256.937 77.5671 256.921 77.7539 256.921C78.0319 256.921 78.2734 256.964 78.4785 257.051C78.6836 257.137 78.8545 257.26 78.9912 257.42C79.1279 257.579 79.2282 257.771 79.292 257.994C79.3604 258.213 79.3945 258.454 79.3945 258.719C79.3945 258.988 79.3672 259.238 79.3125 259.471C79.2624 259.703 79.1826 259.904 79.0732 260.072C78.9593 260.241 78.8112 260.373 78.6289 260.469C78.4512 260.564 78.2347 260.612 77.9795 260.612C77.5648 260.612 77.223 260.494 76.9541 260.257C76.6898 260.02 76.5348 259.685 76.4893 259.252H74.6162C74.6299 259.712 74.7324 260.122 74.9238 260.482C75.1198 260.838 75.3727 261.139 75.6826 261.385C75.9925 261.631 76.3457 261.818 76.7422 261.945C77.1432 262.073 77.5579 262.137 77.9863 262.137C78.5514 262.137 79.0413 262.048 79.4561 261.87C79.8708 261.692 80.2148 261.451 80.4883 261.146C80.7617 260.84 80.9645 260.487 81.0967 260.086C81.2288 259.685 81.2949 259.261 81.2949 258.814C81.2949 258.29 81.2266 257.821 81.0898 257.406C80.9531 256.992 80.7572 256.641 80.502 256.354C80.2422 256.066 79.9232 255.848 79.5449 255.697C79.1712 255.542 78.7451 255.465 78.2666 255.465C77.9294 255.465 77.6309 255.508 77.3711 255.595C77.1113 255.681 76.9108 255.766 76.7695 255.848L77.0088 253.66H80.9668V252.047H75.4434L74.876 257.099ZM98.2549 258.377V256.839H92.5605V258.377H98.2549ZM114.921 262V260.476H110.553L112.426 258.493C112.749 258.16 113.043 257.844 113.308 257.543C113.572 257.238 113.8 256.939 113.991 256.647C114.178 256.356 114.322 256.062 114.422 255.766C114.527 255.465 114.579 255.15 114.579 254.822C114.579 254.389 114.511 253.995 114.374 253.64C114.237 253.28 114.039 252.972 113.779 252.717C113.515 252.462 113.187 252.263 112.795 252.122C112.408 251.981 111.961 251.91 111.455 251.91C110.926 251.91 110.443 251.997 110.006 252.17C109.573 252.339 109.204 252.571 108.898 252.867C108.589 253.163 108.349 253.51 108.181 253.906C108.012 254.298 107.928 254.715 107.928 255.157H109.835C109.835 254.888 109.869 254.649 109.938 254.439C110.006 254.23 110.106 254.054 110.238 253.913C110.366 253.776 110.525 253.674 110.717 253.605C110.913 253.533 111.138 253.496 111.394 253.496C111.59 253.496 111.767 253.528 111.927 253.592C112.091 253.656 112.232 253.747 112.351 253.865C112.465 253.988 112.553 254.136 112.617 254.31C112.681 254.483 112.713 254.681 112.713 254.904C112.713 255.055 112.688 255.21 112.638 255.369C112.592 255.529 112.517 255.7 112.412 255.882C112.303 256.069 112.161 256.274 111.988 256.497C111.815 256.72 111.603 256.969 111.353 257.242L108.133 260.701V262H114.921ZM118.735 256.189V257.666H119.768C120.027 257.666 120.26 257.696 120.465 257.755C120.674 257.814 120.854 257.905 121.005 258.028C121.151 258.151 121.262 258.309 121.34 258.5C121.417 258.691 121.456 258.922 121.456 259.19C121.456 259.405 121.422 259.598 121.354 259.771C121.29 259.945 121.194 260.09 121.066 260.209C120.934 260.341 120.77 260.441 120.574 260.51C120.378 260.578 120.157 260.612 119.911 260.612C119.692 260.612 119.492 260.58 119.31 260.517C119.127 260.448 118.97 260.355 118.838 260.236C118.701 260.122 118.596 259.986 118.523 259.826C118.451 259.662 118.414 259.484 118.414 259.293H116.514C116.514 259.776 116.607 260.195 116.794 260.551C116.985 260.906 117.238 261.2 117.553 261.433C117.867 261.67 118.225 261.847 118.626 261.966C119.032 262.08 119.446 262.137 119.87 262.137C120.362 262.137 120.82 262.073 121.244 261.945C121.673 261.813 122.042 261.622 122.352 261.371C122.661 261.125 122.905 260.82 123.083 260.455C123.261 260.09 123.35 259.676 123.35 259.211C123.35 258.947 123.318 258.696 123.254 258.459C123.19 258.222 123.092 258.003 122.96 257.803C122.828 257.607 122.659 257.431 122.454 257.276C122.254 257.121 122.014 256.994 121.736 256.894C121.973 256.78 122.183 256.645 122.365 256.49C122.548 256.331 122.7 256.158 122.823 255.971C122.946 255.784 123.04 255.588 123.104 255.383C123.167 255.173 123.199 254.961 123.199 254.747C123.199 254.282 123.117 253.874 122.953 253.523C122.794 253.168 122.568 252.869 122.276 252.628C121.985 252.391 121.634 252.213 121.224 252.095C120.813 251.972 120.362 251.91 119.87 251.91C119.414 251.91 118.988 251.976 118.592 252.108C118.2 252.241 117.858 252.425 117.566 252.662C117.275 252.904 117.045 253.191 116.876 253.523C116.712 253.856 116.63 254.225 116.63 254.631H118.53C118.53 254.449 118.567 254.285 118.64 254.139C118.713 253.993 118.813 253.868 118.94 253.763C119.063 253.662 119.207 253.585 119.371 253.53C119.54 253.476 119.72 253.448 119.911 253.448C120.144 253.448 120.346 253.48 120.52 253.544C120.697 253.608 120.843 253.697 120.957 253.811C121.071 253.929 121.155 254.07 121.21 254.234C121.269 254.394 121.299 254.572 121.299 254.768C121.299 254.968 121.269 255.155 121.21 255.328C121.155 255.497 121.071 255.64 120.957 255.759C120.834 255.896 120.672 256.003 120.472 256.08C120.276 256.153 120.041 256.189 119.768 256.189H118.735ZM125.325 257.099L126.843 257.475C126.916 257.402 126.993 257.333 127.075 257.27C127.157 257.201 127.251 257.142 127.355 257.092C127.46 257.042 127.581 257.001 127.718 256.969C127.854 256.937 128.016 256.921 128.203 256.921C128.481 256.921 128.723 256.964 128.928 257.051C129.133 257.137 129.304 257.26 129.44 257.42C129.577 257.579 129.677 257.771 129.741 257.994C129.81 258.213 129.844 258.454 129.844 258.719C129.844 258.988 129.816 259.238 129.762 259.471C129.712 259.703 129.632 259.904 129.522 260.072C129.409 260.241 129.26 260.373 129.078 260.469C128.9 260.564 128.684 260.612 128.429 260.612C128.014 260.612 127.672 260.494 127.403 260.257C127.139 260.02 126.984 259.685 126.938 259.252H125.065C125.079 259.712 125.182 260.122 125.373 260.482C125.569 260.838 125.822 261.139 126.132 261.385C126.442 261.631 126.795 261.818 127.191 261.945C127.592 262.073 128.007 262.137 128.436 262.137C129.001 262.137 129.491 262.048 129.905 261.87C130.32 261.692 130.664 261.451 130.938 261.146C131.211 260.84 131.414 260.487 131.546 260.086C131.678 259.685 131.744 259.261 131.744 258.814C131.744 258.29 131.676 257.821 131.539 257.406C131.402 256.992 131.206 256.641 130.951 256.354C130.691 256.066 130.372 255.848 129.994 255.697C129.62 255.542 129.194 255.465 128.716 255.465C128.379 255.465 128.08 255.508 127.82 255.595C127.561 255.681 127.36 255.766 127.219 255.848L127.458 253.66H131.416V252.047H125.893L125.325 257.099ZM141.964 262H145.594C146.141 262 146.633 261.938 147.07 261.815C147.508 261.692 147.879 261.508 148.185 261.262C148.49 261.016 148.725 260.71 148.889 260.346C149.053 259.981 149.135 259.56 149.135 259.081C149.135 258.83 149.101 258.589 149.032 258.356C148.968 258.119 148.868 257.901 148.731 257.7C148.599 257.513 148.435 257.349 148.239 257.208C148.048 257.067 147.788 256.951 147.46 256.859V256.853C147.629 256.789 147.781 256.711 147.918 256.62C148.059 256.529 148.185 256.429 148.294 256.319C148.494 256.119 148.645 255.886 148.745 255.622C148.85 255.353 148.905 255.068 148.909 254.768C148.909 254.303 148.823 253.899 148.649 253.558C148.481 253.216 148.239 252.933 147.925 252.71C147.61 252.487 147.23 252.32 146.783 252.211C146.341 252.102 145.849 252.047 145.307 252.047H141.964V262ZM143.892 257.611H145.683C145.951 257.616 146.184 257.652 146.38 257.721C146.576 257.789 146.735 257.887 146.858 258.015C146.981 258.138 147.07 258.288 147.125 258.466C147.184 258.644 147.214 258.844 147.214 259.067C147.214 259.282 147.175 259.475 147.098 259.648C147.025 259.822 146.915 259.97 146.77 260.093C146.637 260.202 146.471 260.289 146.271 260.353C146.075 260.416 145.851 260.448 145.601 260.448H143.892V257.611ZM143.892 256.224V253.612H145.313C145.623 253.617 145.892 253.651 146.12 253.715C146.353 253.779 146.537 253.881 146.674 254.022C146.779 254.123 146.856 254.248 146.906 254.398C146.961 254.549 146.988 254.724 146.988 254.925C146.988 255.116 146.956 255.287 146.893 255.438C146.833 255.588 146.747 255.715 146.633 255.82C146.496 255.952 146.316 256.053 146.093 256.121C145.869 256.185 145.612 256.219 145.32 256.224H143.892ZM152.43 258.35H153.913C154.455 258.35 154.945 258.272 155.383 258.117C155.82 257.962 156.194 257.746 156.504 257.468C156.809 257.194 157.044 256.868 157.208 256.49C157.377 256.112 157.461 255.7 157.461 255.253C157.461 254.774 157.377 254.339 157.208 253.947C157.044 253.555 156.809 253.218 156.504 252.936C156.194 252.658 155.82 252.441 155.383 252.286C154.945 252.127 154.455 252.047 153.913 252.047H150.509V262H152.43V258.35ZM152.43 256.791V253.605H153.913C154.187 253.605 154.424 253.649 154.624 253.735C154.825 253.822 154.993 253.94 155.13 254.091C155.262 254.241 155.36 254.417 155.424 254.617C155.492 254.818 155.526 255.034 155.526 255.267C155.526 255.467 155.492 255.661 155.424 255.848C155.36 256.03 155.262 256.192 155.13 256.333C154.993 256.474 154.825 256.586 154.624 256.668C154.424 256.75 154.187 256.791 153.913 256.791H152.43ZM161.152 252.047H158.767V262H160.53V259.054L160.448 254.583L161.617 258.719H162.567L163.873 254.398L163.791 259.054V262H165.555V252.047H163.169L162.096 255.786L161.152 252.047Z" fill="black"/>
</svg>
