<svg width="300" height="301" viewBox="0 0 300 301" fill="none" xmlns="http://www.w3.org/2000/svg">
<rect width="300" height="300" fill="#844C5C" fill-opacity="0.2"/>
<rect x="40" y="15" width="221" height="265" rx="30" fill="white"/>
<path d="M50.6778 132.784C44.2154 155.42 45.1385 178.407 53.5512 200.157C60.7328 218.696 73.3121 235.021 89.7197 247.038C96.0058 251.698 117.223 261.592 124.833 263.412C138.051 266.665 153.3 267.318 167.627 265.267C176.406 263.995 195.906 256.897 203.559 252.189C215.708 244.666 226.969 234.364 235.039 223.301C237.209 220.402 240.788 213.703 244.272 206.232C250.542 192.784 252.269 187.131 253.739 174.81C255.866 158.156 254.064 143.491 248.118 126.984C242.062 110.517 234.016 98.124 221.682 86.7335C212.636 78.2403 207.68 75.0197 194.232 68.7488C180.784 62.478 175.131 60.7516 162.81 59.2812C146.157 57.1547 131.491 58.9568 114.984 64.9028C95.3752 72.0399 80.2642 83.1846 67.4058 99.8365C63.1296 105.301 52.6678 125.981 50.6778 132.784ZM117.199 75.7585C124.459 72.868 135.344 70.3947 135.449 71.5351C135.574 72.048 136.991 80.7127 138.632 90.8465C140.383 100.94 141.645 109.351 141.576 109.501C141.471 109.725 137.383 111.275 132.453 113.069L123.47 116.339L114.273 100.953C101.906 80.2699 102.594 82.5007 107.798 79.9245C110.163 78.7535 114.425 76.83 117.199 75.7585ZM120.946 134.626C125.461 129.819 128.757 127.627 135.579 124.896C146.634 120.5 157.077 120.731 167.685 125.678C177.771 130.381 183.889 136.963 188.125 147.579C192.52 158.633 192.289 169.076 187.342 179.685C182.396 190.294 174.544 197.184 163.251 200.922C152.395 204.501 143.421 204.045 133.335 199.342C123.399 194.709 117.207 188.092 113.016 177.77C106.806 162.413 109.655 146.551 120.946 134.626ZM168.493 211.916C173.388 210.197 177.59 208.791 177.74 208.861C178.113 209.035 196.927 240.274 197.56 241.842C198.307 243.555 183.11 250.203 172.12 252.9C166.991 254.147 165.627 254.147 165.562 253.116C165.467 252.345 164.085 243.605 162.448 233.656C160.847 223.631 159.515 215.37 159.55 215.295C159.585 215.221 163.638 213.745 168.493 211.916Z" fill="#24285B"/>
<path d="M145.611 154.632C139.923 157.765 140.088 167.986 145.941 170.624C152.7 173.674 159.542 169.635 159.542 162.546C159.542 155.374 151.958 151.088 145.611 154.632Z" fill="#24285B"/>
<path d="M40 220H261V250C261 266.569 247.569 280 231 280H70C53.4315 280 40 266.569 40 250V220Z" fill="white"/>
<path d="M60.2539 234.047H57.8682V244H59.6318V241.054L59.5498 236.583L60.7188 240.719H61.6689L62.9746 236.398L62.8926 241.054V244H64.6562V234.047H62.2705L61.1973 237.786L60.2539 234.047ZM72.4287 239.639V238.121H68.3408V235.612H73.0986V234.047H66.4131V244H73.1191V242.448H68.3408V239.639H72.4287ZM74.6709 244H77.3438C77.7858 244 78.2005 243.945 78.5879 243.836C78.9798 243.727 79.3376 243.569 79.6611 243.364C79.9391 243.191 80.1943 242.977 80.4268 242.722C80.6592 242.462 80.862 242.179 81.0352 241.874C81.2174 241.532 81.3587 241.156 81.459 240.746C81.5592 240.336 81.6094 239.901 81.6094 239.44V238.62C81.6094 238.142 81.5547 237.69 81.4453 237.267C81.3405 236.843 81.1901 236.455 80.9941 236.104C80.8255 235.817 80.6273 235.553 80.3994 235.312C80.1761 235.065 79.9209 234.858 79.6338 234.689C79.3057 234.484 78.9411 234.327 78.54 234.218C78.139 234.104 77.7083 234.047 77.248 234.047H74.6709V244ZM76.6055 235.605H77.248C77.4805 235.605 77.6947 235.633 77.8906 235.688C78.0911 235.738 78.2734 235.811 78.4375 235.906C78.6517 236.034 78.8385 236.198 78.998 236.398C79.1621 236.599 79.2943 236.827 79.3945 237.082C79.4766 237.296 79.5381 237.533 79.5791 237.793C79.6247 238.048 79.6475 238.319 79.6475 238.606V239.44C79.6475 239.746 79.6247 240.031 79.5791 240.295C79.5381 240.555 79.4766 240.792 79.3945 241.006C79.2943 241.252 79.1735 241.468 79.0322 241.655C78.8955 241.838 78.7406 241.988 78.5674 242.106C78.3988 242.22 78.2119 242.307 78.0068 242.366C77.8018 242.425 77.5807 242.455 77.3438 242.455H76.6055V235.605ZM83.5439 234.047V235.599H85.4375V242.455H83.5439V244H89.2998V242.455H87.3584V235.599H89.2998V234.047H83.5439ZM98.1592 234.047H96.252L96.2451 240.644C96.2406 240.967 96.2064 241.252 96.1426 241.498C96.0788 241.744 95.9831 241.949 95.8555 242.113C95.737 242.273 95.5866 242.394 95.4043 242.476C95.2266 242.553 95.0215 242.592 94.7891 242.592C94.5749 242.592 94.3857 242.555 94.2217 242.482C94.0576 242.405 93.9186 242.291 93.8047 242.141C93.6816 241.977 93.5882 241.769 93.5244 241.519C93.4652 241.268 93.4333 240.976 93.4287 240.644L93.4219 234.047H91.501L91.4941 240.644C91.4941 241.2 91.5716 241.696 91.7266 242.134C91.8861 242.567 92.1094 242.931 92.3965 243.228C92.6836 243.524 93.0277 243.749 93.4287 243.904C93.8343 244.059 94.2878 244.137 94.7891 244.137C95.3223 244.137 95.7962 244.059 96.2109 243.904C96.6302 243.749 96.9857 243.521 97.2773 243.221C97.5645 242.924 97.7832 242.56 97.9336 242.127C98.0885 241.694 98.166 241.2 98.166 240.644L98.1592 234.047ZM102.295 234.047H99.9092V244H101.673V241.054L101.591 236.583L102.76 240.719H103.71L105.016 236.398L104.934 241.054V244H106.697V234.047H104.312L103.238 237.786L102.295 234.047ZM62.6191 262V252.047H62.5166L58.1826 253.612V255.267L60.6982 254.364V262H62.6191ZM71.9229 258.302V252.047H69.9951L65.8115 258.65L65.8867 259.84H70.0225V262H71.9229V259.84H73.0781V258.302H71.9229ZM67.6777 258.302L69.8379 254.932L70.0225 254.604V258.302H67.6777ZM74.876 257.099L76.3936 257.475C76.4665 257.402 76.5439 257.333 76.626 257.27C76.708 257.201 76.8014 257.142 76.9062 257.092C77.0111 257.042 77.1318 257.001 77.2686 256.969C77.4053 256.937 77.5671 256.921 77.7539 256.921C78.0319 256.921 78.2734 256.964 78.4785 257.051C78.6836 257.137 78.8545 257.26 78.9912 257.42C79.1279 257.579 79.2282 257.771 79.292 257.994C79.3604 258.213 79.3945 258.454 79.3945 258.719C79.3945 258.988 79.3672 259.238 79.3125 259.471C79.2624 259.703 79.1826 259.904 79.0732 260.072C78.9593 260.241 78.8112 260.373 78.6289 260.469C78.4512 260.564 78.2347 260.612 77.9795 260.612C77.5648 260.612 77.223 260.494 76.9541 260.257C76.6898 260.02 76.5348 259.685 76.4893 259.252H74.6162C74.6299 259.712 74.7324 260.122 74.9238 260.482C75.1198 260.838 75.3727 261.139 75.6826 261.385C75.9925 261.631 76.3457 261.818 76.7422 261.945C77.1432 262.073 77.5579 262.137 77.9863 262.137C78.5514 262.137 79.0413 262.048 79.4561 261.87C79.8708 261.692 80.2148 261.451 80.4883 261.146C80.7617 260.84 80.9645 260.487 81.0967 260.086C81.2288 259.685 81.2949 259.261 81.2949 258.814C81.2949 258.29 81.2266 257.821 81.0898 257.406C80.9531 256.992 80.7572 256.641 80.502 256.354C80.2422 256.066 79.9232 255.848 79.5449 255.697C79.1712 255.542 78.7451 255.465 78.2666 255.465C77.9294 255.465 77.6309 255.508 77.3711 255.595C77.1113 255.681 76.9108 255.766 76.7695 255.848L77.0088 253.66H80.9668V252.047H75.4434L74.876 257.099ZM98.2549 258.377V256.839H92.5605V258.377H98.2549ZM113.068 262V252.047H112.966L108.632 253.612V255.267L111.147 254.364V262H113.068ZM123.322 253.106V252.047H116.329V253.599H121.326L117.443 262H119.446L123.322 253.106ZM125.325 257.099L126.843 257.475C126.916 257.402 126.993 257.333 127.075 257.27C127.157 257.201 127.251 257.142 127.355 257.092C127.46 257.042 127.581 257.001 127.718 256.969C127.854 256.937 128.016 256.921 128.203 256.921C128.481 256.921 128.723 256.964 128.928 257.051C129.133 257.137 129.304 257.26 129.44 257.42C129.577 257.579 129.677 257.771 129.741 257.994C129.81 258.213 129.844 258.454 129.844 258.719C129.844 258.988 129.816 259.238 129.762 259.471C129.712 259.703 129.632 259.904 129.522 260.072C129.409 260.241 129.26 260.373 129.078 260.469C128.9 260.564 128.684 260.612 128.429 260.612C128.014 260.612 127.672 260.494 127.403 260.257C127.139 260.02 126.984 259.685 126.938 259.252H125.065C125.079 259.712 125.182 260.122 125.373 260.482C125.569 260.838 125.822 261.139 126.132 261.385C126.442 261.631 126.795 261.818 127.191 261.945C127.592 262.073 128.007 262.137 128.436 262.137C129.001 262.137 129.491 262.048 129.905 261.87C130.32 261.692 130.664 261.451 130.938 261.146C131.211 260.84 131.414 260.487 131.546 260.086C131.678 259.685 131.744 259.261 131.744 258.814C131.744 258.29 131.676 257.821 131.539 257.406C131.402 256.992 131.206 256.641 130.951 256.354C130.691 256.066 130.372 255.848 129.994 255.697C129.62 255.542 129.194 255.465 128.716 255.465C128.379 255.465 128.08 255.508 127.82 255.595C127.561 255.681 127.36 255.766 127.219 255.848L127.458 253.66H131.416V252.047H125.893L125.325 257.099ZM141.964 262H145.594C146.141 262 146.633 261.938 147.07 261.815C147.508 261.692 147.879 261.508 148.185 261.262C148.49 261.016 148.725 260.71 148.889 260.346C149.053 259.981 149.135 259.56 149.135 259.081C149.135 258.83 149.101 258.589 149.032 258.356C148.968 258.119 148.868 257.901 148.731 257.7C148.599 257.513 148.435 257.349 148.239 257.208C148.048 257.067 147.788 256.951 147.46 256.859V256.853C147.629 256.789 147.781 256.711 147.918 256.62C148.059 256.529 148.185 256.429 148.294 256.319C148.494 256.119 148.645 255.886 148.745 255.622C148.85 255.353 148.905 255.068 148.909 254.768C148.909 254.303 148.823 253.899 148.649 253.558C148.481 253.216 148.239 252.933 147.925 252.71C147.61 252.487 147.23 252.32 146.783 252.211C146.341 252.102 145.849 252.047 145.307 252.047H141.964V262ZM143.892 257.611H145.683C145.951 257.616 146.184 257.652 146.38 257.721C146.576 257.789 146.735 257.887 146.858 258.015C146.981 258.138 147.07 258.288 147.125 258.466C147.184 258.644 147.214 258.844 147.214 259.067C147.214 259.282 147.175 259.475 147.098 259.648C147.025 259.822 146.915 259.97 146.77 260.093C146.637 260.202 146.471 260.289 146.271 260.353C146.075 260.416 145.851 260.448 145.601 260.448H143.892V257.611ZM143.892 256.224V253.612H145.313C145.623 253.617 145.892 253.651 146.12 253.715C146.353 253.779 146.537 253.881 146.674 254.022C146.779 254.123 146.856 254.248 146.906 254.398C146.961 254.549 146.988 254.724 146.988 254.925C146.988 255.116 146.956 255.287 146.893 255.438C146.833 255.588 146.747 255.715 146.633 255.82C146.496 255.952 146.316 256.053 146.093 256.121C145.869 256.185 145.612 256.219 145.32 256.224H143.892ZM152.43 258.35H153.913C154.455 258.35 154.945 258.272 155.383 258.117C155.82 257.962 156.194 257.746 156.504 257.468C156.809 257.194 157.044 256.868 157.208 256.49C157.377 256.112 157.461 255.7 157.461 255.253C157.461 254.774 157.377 254.339 157.208 253.947C157.044 253.555 156.809 253.218 156.504 252.936C156.194 252.658 155.82 252.441 155.383 252.286C154.945 252.127 154.455 252.047 153.913 252.047H150.509V262H152.43V258.35ZM152.43 256.791V253.605H153.913C154.187 253.605 154.424 253.649 154.624 253.735C154.825 253.822 154.993 253.94 155.13 254.091C155.262 254.241 155.36 254.417 155.424 254.617C155.492 254.818 155.526 255.034 155.526 255.267C155.526 255.467 155.492 255.661 155.424 255.848C155.36 256.03 155.262 256.192 155.13 256.333C154.993 256.474 154.825 256.586 154.624 256.668C154.424 256.75 154.187 256.791 153.913 256.791H152.43ZM161.152 252.047H158.767V262H160.53V259.054L160.448 254.583L161.617 258.719H162.567L163.873 254.398L163.791 259.054V262H165.555V252.047H163.169L162.096 255.786L161.152 252.047Z" fill="black"/>
</svg>
