<svg width="128" height="128" viewBox="0 0 128 128" fill="none" xmlns="http://www.w3.org/2000/svg">
<path d="M54.75 1.5C40.65 3.75 28.25 10.15 18.45 20.35C10.1 29.05 4.35 40.15 1.95 52.25C1 56.9 1 71.1 1.95 75.75C3.55 83.85 7.1 92.4 11.9 99.75C14.85 104.25 23.75 113.15 28.3 116.15C35.55 120.9 44.1 124.45 52.25 126.05C54.4 126.5 59 126.75 64 126.75C73 126.75 76.55 126.25 83.7 123.9C93.4 120.8 101 116.05 108.55 108.55C116.05 101 120.8 93.4 123.9 83.7C126.25 76.55 126.75 73 126.75 64C126.75 55 126.25 51.45 123.9 44.3C120.8 34.6 116.05 27 108.55 19.45C99.6 10.5 89.6 5.05 77.15 2.25C73.05 1.3 59 0.849998 54.75 1.5ZM103.15 23.45C106.6 26.7 110.75 32.05 110.15 32.4C109.9 32.6 105.5 35.6 100.35 39.1C95.25 42.65 90.95 45.5 90.85 45.5C90.7 45.5 88.8 43.65 86.55 41.4L82.45 37.3L88.55 28.3C96.75 16.2 95.7 17.15 98.45 19.35C99.7 20.35 101.85 22.2 103.15 23.45ZM71.75 40.6C75.55 41.85 77.6 43.1 80.85 46.15C86.1 51.1 88.65 56.9 88.65 64C88.65 70.75 86.6 75.8 81.85 80.85C76.9 86.1 71.1 88.65 64 88.65C56.9 88.65 51.1 86.1 46.15 80.85C41.4 75.8 39.35 70.75 39.35 64C39.35 57.35 41.4 52.25 46 47.3C52.85 39.95 62.3 37.45 71.75 40.6ZM41.45 86.55C43.65 88.8 45.5 90.75 45.5 90.85C45.5 91.1 33.15 109.45 32.45 110.2C31.7 111.05 24.15 104.4 19.85 99.05C17.85 96.55 17.5 95.8 18.05 95.5C18.45 95.25 22.9 92.25 27.95 88.8C33.05 85.35 37.25 82.5 37.3 82.5C37.35 82.5 39.2 84.35 41.45 86.55Z" fill="#24285B"/>
<path d="M61.05 59.2C57.6 61.1 57.7 67.3 61.25 68.9C65.35 70.75 69.5 68.3 69.5 64C69.5 59.65 64.9 57.05 61.05 59.2Z" fill="#24285B"/>
</svg>
