<svg width="300" height="301" viewBox="0 0 300 301" fill="none" xmlns="http://www.w3.org/2000/svg">
<rect width="300" height="300" fill="#E5BCC7" fill-opacity="0.2"/>
<rect x="40" y="15" width="221" height="265" rx="30" fill="white"/>
<path d="M50.6777 132.784C44.2154 155.42 45.1385 178.407 53.5511 200.158C60.7327 218.696 73.312 235.022 89.7196 247.038C96.0058 251.698 117.223 261.592 124.833 263.412C138.051 266.665 153.3 267.318 167.627 265.267C176.406 263.995 195.906 256.897 203.559 252.189C215.708 244.666 226.969 234.364 235.039 223.301C237.209 220.402 240.788 213.703 244.272 206.232C250.542 192.784 252.269 187.131 253.739 174.81C255.866 158.156 254.064 143.491 248.118 126.984C242.062 110.517 234.016 98.1241 221.682 86.7335C212.636 78.2403 207.68 75.0197 194.232 68.7489C180.784 62.4781 175.131 60.7517 162.81 59.2813C146.157 57.1547 131.491 58.9568 114.984 64.9028C95.3751 72.04 80.2641 83.1847 67.4057 99.8365C63.1295 105.301 52.6677 125.981 50.6777 132.784ZM117.199 75.7586C124.458 72.868 135.344 70.3947 135.449 71.5351C135.574 72.048 136.99 80.7128 138.632 90.8466C140.383 100.941 141.645 109.351 141.576 109.501C141.471 109.725 137.383 111.275 132.453 113.069L123.47 116.339L114.273 100.953C101.906 80.27 102.594 82.5008 107.798 79.9246C110.163 78.7536 114.425 76.8301 117.199 75.7586ZM120.946 134.626C125.461 129.819 128.757 127.627 135.579 124.896C146.633 120.5 157.077 120.731 167.685 125.678C177.771 130.381 183.889 136.963 188.125 147.579C192.52 158.633 192.289 169.076 187.342 179.685C182.395 190.294 174.544 197.184 163.251 200.922C152.395 204.501 143.421 204.045 133.335 199.342C123.399 194.709 117.207 188.092 113.016 177.77C106.806 162.413 109.655 146.551 120.946 134.626ZM168.493 211.916C173.388 210.197 177.59 208.791 177.74 208.861C178.113 209.035 196.927 240.274 197.56 241.842C198.307 243.555 183.11 250.203 172.12 252.9C166.991 254.147 165.627 254.147 165.562 253.117C165.467 252.345 164.085 243.605 162.448 233.656C160.847 223.631 159.515 215.37 159.55 215.295C159.584 215.221 163.638 213.745 168.493 211.916Z" fill="#24285B"/>
<path d="M145.611 154.632C139.923 157.765 140.088 167.987 145.941 170.624C152.7 173.675 159.542 169.635 159.542 162.546C159.542 155.374 151.958 151.088 145.611 154.632Z" fill="#24285B"/>
<path d="M40 220H261V250C261 266.569 247.569 280 231 280H70C53.4315 280 40 266.569 40 250V220Z" fill="white"/>
<path d="M63.0635 241.402C63.0635 241.58 63.027 241.744 62.9541 241.895C62.8812 242.04 62.7764 242.166 62.6396 242.271C62.5029 242.375 62.3343 242.457 62.1338 242.517C61.9378 242.576 61.7122 242.605 61.457 242.605C61.1699 242.605 60.9056 242.574 60.6641 242.51C60.4271 242.446 60.2243 242.346 60.0557 242.209C59.8825 242.072 59.748 241.897 59.6523 241.683C59.5566 241.468 59.5042 241.211 59.4951 240.91H57.6084C57.6084 241.425 57.7064 241.874 57.9023 242.257C58.1029 242.64 58.374 242.972 58.7158 243.255C59.0758 243.542 59.4974 243.761 59.9805 243.911C60.4681 244.057 60.9603 244.13 61.457 244.13C61.9629 244.13 62.43 244.071 62.8584 243.952C63.2868 243.829 63.6559 243.649 63.9658 243.412C64.2757 243.18 64.5173 242.895 64.6904 242.558C64.8682 242.216 64.957 241.826 64.957 241.389C64.957 240.883 64.8408 240.436 64.6084 240.049C64.376 239.661 64.0638 239.322 63.6719 239.03C63.4121 238.853 63.1273 238.695 62.8174 238.559C62.5075 238.422 62.1816 238.306 61.8398 238.21C61.5208 238.123 61.2337 238.03 60.9785 237.93C60.7279 237.829 60.5137 237.718 60.3359 237.595C60.1582 237.476 60.0215 237.342 59.9258 237.191C59.8346 237.041 59.7891 236.872 59.7891 236.686C59.7891 236.508 59.8232 236.344 59.8916 236.193C59.9645 236.038 60.0693 235.904 60.2061 235.79C60.3428 235.681 60.5091 235.596 60.7051 235.537C60.9056 235.473 61.1335 235.441 61.3887 235.441C61.6667 235.441 61.9082 235.48 62.1133 235.558C62.3229 235.631 62.4984 235.733 62.6396 235.865C62.7764 236.002 62.8789 236.164 62.9473 236.351C63.0202 236.537 63.0612 236.743 63.0703 236.966H64.9434C64.9434 236.519 64.8568 236.109 64.6836 235.735C64.5104 235.362 64.2689 235.038 63.959 234.765C63.6491 234.496 63.2777 234.286 62.8447 234.136C62.4163 233.985 61.9424 233.91 61.4229 233.91C60.9215 233.91 60.4567 233.976 60.0283 234.108C59.5999 234.236 59.2285 234.421 58.9141 234.662C58.5996 234.904 58.3535 235.195 58.1758 235.537C57.998 235.879 57.9092 236.259 57.9092 236.679C57.9092 237.043 57.9753 237.381 58.1074 237.69C58.2441 238 58.4447 238.283 58.709 238.538C58.9733 238.793 59.3128 239.028 59.7275 239.242C60.1468 239.456 60.6322 239.639 61.1836 239.789C61.5391 239.885 61.8353 239.99 62.0723 240.104C62.3138 240.213 62.5098 240.334 62.6602 240.466C62.806 240.603 62.9085 240.748 62.9678 240.903C63.0316 241.058 63.0635 241.225 63.0635 241.402ZM68.3613 242.448V234.047H66.4336V244H73.0234V242.448H68.3613ZM81.6572 239.755V238.306C81.6572 237.854 81.6139 237.428 81.5273 237.027C81.4453 236.626 81.3245 236.257 81.165 235.92C81.0192 235.624 80.8438 235.353 80.6387 235.106C80.4382 234.86 80.2035 234.651 79.9346 234.478C79.6657 234.295 79.3626 234.156 79.0254 234.061C78.6927 233.96 78.335 233.91 77.9521 233.91C77.5739 233.91 77.223 233.958 76.8994 234.054C76.5758 234.149 76.2842 234.286 76.0244 234.464C75.7601 234.646 75.5254 234.865 75.3203 235.12C75.1198 235.375 74.9489 235.66 74.8076 235.975C74.6618 236.307 74.5501 236.67 74.4727 237.062C74.3997 237.453 74.3633 237.868 74.3633 238.306V239.755C74.3633 240.165 74.3952 240.555 74.459 240.924C74.5273 241.293 74.6253 241.635 74.7529 241.949C74.8942 242.291 75.0697 242.599 75.2793 242.872C75.4889 243.141 75.7259 243.371 75.9902 243.562C76.2591 243.745 76.5576 243.886 76.8857 243.986C77.2139 244.087 77.5716 244.137 77.959 244.137C78.3236 244.137 78.6631 244.091 78.9775 244C79.2965 243.913 79.5882 243.79 79.8525 243.631C80.1442 243.449 80.404 243.221 80.6318 242.947C80.8597 242.674 81.0511 242.373 81.2061 242.045C81.3519 241.717 81.4635 241.361 81.541 240.979C81.6185 240.591 81.6572 240.183 81.6572 239.755ZM79.709 238.292V239.755C79.709 240.001 79.6953 240.238 79.668 240.466C79.6452 240.694 79.6087 240.903 79.5586 241.095C79.4948 241.341 79.4082 241.562 79.2988 241.758C79.194 241.949 79.0641 242.109 78.9092 242.236C78.7861 242.341 78.6449 242.421 78.4854 242.476C78.3258 242.53 78.1504 242.558 77.959 242.558C77.7585 242.558 77.5785 242.528 77.4189 242.469C77.264 242.41 77.125 242.325 77.002 242.216C76.8698 242.093 76.7536 241.933 76.6533 241.737C76.5576 241.537 76.4847 241.316 76.4346 241.074C76.389 240.883 76.3571 240.675 76.3389 240.452C76.3206 240.229 76.3115 239.996 76.3115 239.755V238.292C76.3115 238.037 76.3206 237.793 76.3389 237.561C76.3617 237.328 76.3958 237.114 76.4414 236.918C76.5007 236.663 76.5827 236.439 76.6875 236.248C76.7969 236.057 76.929 235.897 77.084 235.77C77.1979 235.683 77.3255 235.617 77.4668 235.571C77.6126 235.526 77.7744 235.503 77.9521 235.503C78.139 235.503 78.3076 235.528 78.458 235.578C78.613 235.628 78.752 235.699 78.875 235.79C79.0299 235.913 79.1644 236.073 79.2783 236.269C79.3923 236.46 79.4834 236.679 79.5518 236.925C79.6064 237.121 79.6452 237.335 79.668 237.567C79.6953 237.795 79.709 238.037 79.709 238.292ZM83.7695 244H85.5059L86.3398 238.627L86.415 238.121L86.4902 238.627L87.3584 244H89.0947L90.4756 234.047H88.7119L88.0352 239.625L87.9873 240.042L87.9258 239.632L87.0918 234.047H85.7178L84.9316 239.591L84.8701 240.001L84.8223 239.611L84.1592 234.047H82.4023L83.7695 244ZM62.6191 262V252.047H62.5166L58.1826 253.612V255.267L60.6982 254.364V262H62.6191ZM71.0273 262V252.047H70.9248L66.5908 253.612V255.267L69.1064 254.364V262H71.0273ZM81.2607 258.213V255.834C81.2607 255.191 81.1855 254.626 81.0352 254.139C80.8848 253.646 80.6706 253.234 80.3926 252.901C80.11 252.573 79.7682 252.325 79.3672 252.156C78.9661 251.988 78.515 251.903 78.0137 251.903C77.5169 251.903 77.068 251.988 76.667 252.156C76.2705 252.325 75.9333 252.573 75.6553 252.901C75.3727 253.234 75.1562 253.646 75.0059 254.139C74.8555 254.626 74.7803 255.191 74.7803 255.834V258.213C74.7803 258.855 74.8555 259.423 75.0059 259.915C75.1608 260.403 75.3796 260.811 75.6621 261.139C75.9401 261.471 76.2796 261.722 76.6807 261.891C77.0817 262.059 77.5306 262.144 78.0273 262.144C78.5286 262.144 78.9798 262.059 79.3809 261.891C79.7819 261.722 80.1214 261.471 80.3994 261.139C80.6774 260.811 80.8893 260.403 81.0352 259.915C81.1855 259.423 81.2607 258.855 81.2607 258.213ZM76.6943 257.393C76.6943 257.251 76.6943 257.144 76.6943 257.071C76.6943 256.998 76.6943 256.853 76.6943 256.634V255.533C76.6943 255.164 76.7217 254.845 76.7764 254.576C76.8356 254.307 76.9245 254.089 77.043 253.92C77.1523 253.76 77.2868 253.642 77.4463 253.564C77.6104 253.482 77.7995 253.441 78.0137 253.441C78.2051 253.441 78.376 253.473 78.5264 253.537C78.6813 253.596 78.8112 253.69 78.916 253.817C79.0527 253.977 79.1553 254.191 79.2236 254.46C79.2965 254.724 79.3376 255.043 79.3467 255.417L76.6943 257.393ZM79.3467 258.5C79.3467 258.869 79.3171 259.19 79.2578 259.464C79.2031 259.733 79.1188 259.954 79.0049 260.127C78.8955 260.291 78.7588 260.414 78.5947 260.496C78.4307 260.574 78.2415 260.612 78.0273 260.612C77.7949 260.612 77.5944 260.567 77.4258 260.476C77.2572 260.384 77.1182 260.245 77.0088 260.059C76.9131 259.904 76.8379 259.71 76.7832 259.478C76.7331 259.245 76.7035 258.979 76.6943 258.678L79.3467 256.709C79.3467 256.841 79.3467 256.944 79.3467 257.017C79.3467 257.085 79.3467 257.194 79.3467 257.345V258.5ZM98.2549 258.377V256.839H92.5605V258.377H98.2549ZM113.068 262V252.047H112.966L108.632 253.612V255.267L111.147 254.364V262H113.068ZM122.372 258.302V252.047H120.444L116.261 258.65L116.336 259.84H120.472V262H122.372V259.84H123.527V258.302H122.372ZM118.127 258.302L120.287 254.932L120.472 254.604V258.302H118.127ZM125.325 257.099L126.843 257.475C126.916 257.402 126.993 257.333 127.075 257.27C127.157 257.201 127.251 257.142 127.355 257.092C127.46 257.042 127.581 257.001 127.718 256.969C127.854 256.937 128.016 256.921 128.203 256.921C128.481 256.921 128.723 256.964 128.928 257.051C129.133 257.137 129.304 257.26 129.44 257.42C129.577 257.579 129.677 257.771 129.741 257.994C129.81 258.213 129.844 258.454 129.844 258.719C129.844 258.988 129.816 259.238 129.762 259.471C129.712 259.703 129.632 259.904 129.522 260.072C129.409 260.241 129.26 260.373 129.078 260.469C128.9 260.564 128.684 260.612 128.429 260.612C128.014 260.612 127.672 260.494 127.403 260.257C127.139 260.02 126.984 259.685 126.938 259.252H125.065C125.079 259.712 125.182 260.122 125.373 260.482C125.569 260.838 125.822 261.139 126.132 261.385C126.442 261.631 126.795 261.818 127.191 261.945C127.592 262.073 128.007 262.137 128.436 262.137C129.001 262.137 129.491 262.048 129.905 261.87C130.32 261.692 130.664 261.451 130.938 261.146C131.211 260.84 131.414 260.487 131.546 260.086C131.678 259.685 131.744 259.261 131.744 258.814C131.744 258.29 131.676 257.821 131.539 257.406C131.402 256.992 131.206 256.641 130.951 256.354C130.691 256.066 130.372 255.848 129.994 255.697C129.62 255.542 129.194 255.465 128.716 255.465C128.379 255.465 128.08 255.508 127.82 255.595C127.561 255.681 127.36 255.766 127.219 255.848L127.458 253.66H131.416V252.047H125.893L125.325 257.099ZM141.964 262H145.594C146.141 262 146.633 261.938 147.07 261.815C147.508 261.692 147.879 261.508 148.185 261.262C148.49 261.016 148.725 260.71 148.889 260.346C149.053 259.981 149.135 259.56 149.135 259.081C149.135 258.83 149.101 258.589 149.032 258.356C148.968 258.119 148.868 257.901 148.731 257.7C148.599 257.513 148.435 257.349 148.239 257.208C148.048 257.067 147.788 256.951 147.46 256.859V256.853C147.629 256.789 147.781 256.711 147.918 256.62C148.059 256.529 148.185 256.429 148.294 256.319C148.494 256.119 148.645 255.886 148.745 255.622C148.85 255.353 148.905 255.068 148.909 254.768C148.909 254.303 148.823 253.899 148.649 253.558C148.481 253.216 148.239 252.933 147.925 252.71C147.61 252.487 147.23 252.32 146.783 252.211C146.341 252.102 145.849 252.047 145.307 252.047H141.964V262ZM143.892 257.611H145.683C145.951 257.616 146.184 257.652 146.38 257.721C146.576 257.789 146.735 257.887 146.858 258.015C146.981 258.138 147.07 258.288 147.125 258.466C147.184 258.644 147.214 258.844 147.214 259.067C147.214 259.282 147.175 259.475 147.098 259.648C147.025 259.822 146.915 259.97 146.77 260.093C146.637 260.202 146.471 260.289 146.271 260.353C146.075 260.416 145.851 260.448 145.601 260.448H143.892V257.611ZM143.892 256.224V253.612H145.313C145.623 253.617 145.892 253.651 146.12 253.715C146.353 253.779 146.537 253.881 146.674 254.022C146.779 254.123 146.856 254.248 146.906 254.398C146.961 254.549 146.988 254.724 146.988 254.925C146.988 255.116 146.956 255.287 146.893 255.438C146.833 255.588 146.747 255.715 146.633 255.82C146.496 255.952 146.316 256.053 146.093 256.121C145.869 256.185 145.612 256.219 145.32 256.224H143.892ZM152.43 258.35H153.913C154.455 258.35 154.945 258.272 155.383 258.117C155.82 257.962 156.194 257.746 156.504 257.468C156.809 257.194 157.044 256.868 157.208 256.49C157.377 256.112 157.461 255.7 157.461 255.253C157.461 254.774 157.377 254.339 157.208 253.947C157.044 253.555 156.809 253.218 156.504 252.936C156.194 252.658 155.82 252.441 155.383 252.286C154.945 252.127 154.455 252.047 153.913 252.047H150.509V262H152.43V258.35ZM152.43 256.791V253.605H153.913C154.187 253.605 154.424 253.649 154.624 253.735C154.825 253.822 154.993 253.94 155.13 254.091C155.262 254.241 155.36 254.417 155.424 254.617C155.492 254.818 155.526 255.034 155.526 255.267C155.526 255.467 155.492 255.661 155.424 255.848C155.36 256.03 155.262 256.192 155.13 256.333C154.993 256.474 154.825 256.586 154.624 256.668C154.424 256.75 154.187 256.791 153.913 256.791H152.43ZM161.152 252.047H158.767V262H160.53V259.054L160.448 254.583L161.617 258.719H162.567L163.873 254.398L163.791 259.054V262H165.555V252.047H163.169L162.096 255.786L161.152 252.047Z" fill="black"/>
</svg>
